<?xml version="1.0" standalone="no"?>
<!DOCTYPE svg PUBLIC "-//W3C//DTD SVG 20010904//EN"
 "http://www.w3.org/TR/2001/REC-SVG-20010904/DTD/svg10.dtd">
<svg version="1.0" xmlns="http://www.w3.org/2000/svg"
 width="1365.000000pt" height="1024.000000pt" viewBox="0 0 1365.000000 1024.000000"
 preserveAspectRatio="xMidYMid meet">

<g transform="translate(0.000000,1024.000000) scale(0.100000,-0.100000)"
fill="#000000" stroke="none">
<path d="M8856 9413 c-17 -8 -71 -19 -120 -23 -50 -5 -109 -14 -130 -20 -22
-7 -57 -9 -79 -6 -67 11 -130 -17 -223 -100 -46 -41 -89 -74 -96 -74 -39 0
-79 -43 -118 -124 -22 -47 -51 -98 -64 -113 -70 -85 -63 -164 25 -279 43 -57
206 -202 287 -256 48 -32 51 -36 30 -42 -13 -3 -32 -6 -44 -6 -32 0 -99 -64
-122 -118 -12 -26 -26 -77 -31 -113 -11 -65 -16 -449 -6 -449 3 0 37 16 75 35
120 61 245 174 312 285 30 49 33 62 33 130 0 60 -5 83 -22 113 -13 21 -23 39
-23 41 0 1 44 -13 98 -31 112 -38 204 -43 321 -18 140 29 307 109 368 176 57
63 145 245 162 335 15 79 -4 238 -39 336 -37 103 -70 138 -129 138 -21 0 -62
5 -91 10 -47 9 -61 18 -131 88 -43 42 -91 82 -106 89 -39 17 -103 15 -137 -4z
m-392 -1409 c4 -10 1 -14 -6 -12 -15 5 -23 28 -10 28 5 0 13 -7 16 -16z m-99
-44 c3 -5 1 -10 -4 -10 -6 0 -11 5 -11 10 0 6 2 10 4 10 3 0 8 -4 11 -10z m5
-80 c0 -5 -4 -10 -10 -10 -5 0 -10 5 -10 10 0 6 5 10 10 10 6 0 10 -4 10 -10z
m-72 -29 c3 -8 -1 -12 -9 -9 -7 2 -15 10 -17 17 -3 8 1 12 9 9 7 -2 15 -10 17
-17z"/>
<path d="M9995 9297 c-101 -141 -147 -215 -247 -402 -45 -82 -114 -202 -153
-266 -40 -64 -80 -129 -88 -145 -8 -16 -33 -49 -54 -74 -24 -26 -43 -60 -47
-82 -6 -34 -229 -433 -441 -789 -51 -85 -114 -194 -139 -242 -25 -48 -98 -176
-163 -284 -162 -274 -203 -345 -258 -448 -64 -119 -442 -794 -513 -915 -186
-319 -320 -541 -351 -580 -85 -109 -159 -173 -259 -225 -29 -15 -51 -30 -48
-33 3 -2 21 5 41 16 19 12 35 18 35 14 0 -12 -70 -43 -80 -37 -5 3 -49 -8 -97
-24 -48 -16 -125 -34 -170 -41 -108 -15 -262 -20 -268 -9 -3 4 -12 6 -20 2 -8
-3 -23 -2 -32 3 -10 4 -27 8 -38 10 -11 1 -40 9 -64 19 -24 9 -50 14 -58 11
-9 -4 -11 -1 -7 6 5 7 0 9 -14 6 -12 -4 -22 -2 -22 4 0 6 -9 8 -20 5 -12 -3
-18 -1 -14 5 4 6 -1 8 -15 3 -12 -4 -21 -2 -21 4 0 6 -7 7 -17 4 -12 -5 -14
-3 -8 7 5 9 4 11 -3 6 -13 -8 -125 24 -130 36 -2 5 -8 6 -13 2 -5 -3 -15 -2
-21 3 -7 4 -20 8 -28 9 -36 2 -90 17 -90 25 0 4 -9 6 -20 4 -11 -2 -20 0 -20
4 0 4 -6 8 -12 8 -23 2 -204 52 -279 78 -81 28 -100 34 -141 40 -14 2 -34 8
-45 13 -10 6 -35 13 -56 16 -21 3 -46 10 -56 15 -9 5 -39 14 -66 20 -75 15
-170 44 -173 53 -2 5 -8 6 -13 3 -4 -3 -22 1 -39 10 -16 8 -30 13 -30 11 0 -3
-37 8 -82 24 -46 16 -94 31 -108 33 -14 3 -37 10 -52 16 -16 6 -28 8 -28 5 0
-4 -6 -2 -12 4 -7 5 -103 35 -213 67 -110 31 -209 61 -220 65 -59 24 -277 90
-430 130 -38 11 -101 29 -140 40 -38 12 -142 41 -230 66 -161 45 -294 84 -373
110 -23 8 -46 13 -50 12 -4 -1 -20 4 -37 11 -16 7 -41 14 -55 16 -14 2 -39 8
-57 14 -17 5 -34 7 -37 3 -3 -3 -6 -1 -6 5 0 5 -14 10 -30 11 -35 1 -99 20
-117 34 -7 6 -19 8 -27 5 -8 -3 -16 -2 -18 2 -5 13 -566 169 -700 195 -13 2
-30 7 -38 10 -8 3 -26 8 -40 10 -14 3 -46 12 -72 20 -27 8 -48 12 -48 9 0 -3
-6 0 -13 6 -8 6 -27 13 -43 15 -16 2 -36 6 -44 9 -8 3 -33 8 -55 12 -22 4
-152 37 -290 75 -137 38 -318 87 -401 109 -83 22 -160 43 -170 47 -17 5 -17 4
1 -7 11 -6 29 -19 39 -28 14 -11 17 -12 11 -2 -5 10 -4 12 3 7 7 -4 12 -17 12
-29 0 -13 3 -17 8 -11 7 12 25 0 31 -21 2 -5 7 -9 12 -7 5 1 9 -2 9 -8 0 -5
16 -17 35 -26 19 -9 35 -20 35 -25 0 -4 9 -6 20 -4 11 2 20 0 20 -4 0 -4 14
-8 31 -9 17 0 36 -5 43 -11 7 -6 25 -12 40 -13 14 -1 26 -5 26 -9 0 -6 58 -23
73 -20 4 0 7 -3 7 -8 0 -6 9 -8 20 -6 12 2 23 -2 27 -11 3 -10 9 -11 17 -5 7
6 17 6 26 1 8 -6 27 -10 43 -10 15 0 27 -5 27 -11 0 -6 7 -9 15 -5 8 3 15 0
15 -6 0 -6 3 -9 6 -6 3 4 20 2 37 -4 18 -5 40 -10 50 -10 9 1 17 -4 17 -10 0
-6 3 -8 7 -5 3 4 13 1 21 -6 13 -10 14 -9 7 3 -4 8 3 5 17 -8 17 -15 28 -20
33 -13 4 8 15 6 34 -4 16 -8 31 -11 35 -8 3 4 6 1 6 -7 0 -10 3 -10 15 0 9 7
15 8 15 2 0 -5 16 -13 35 -16 20 -4 33 -11 31 -15 -3 -4 5 -7 17 -6 12 1 27
-2 34 -7 7 -5 16 -8 20 -5 4 3 19 0 33 -6 14 -5 36 -12 50 -14 13 -2 30 -8 36
-14 6 -5 14 -6 17 -2 4 3 12 1 19 -4 7 -6 23 -9 35 -8 14 1 23 -4 23 -12 0 -8
5 -11 11 -7 6 3 15 0 20 -7 7 -12 9 -12 9 0 0 12 3 12 18 -1 9 -8 28 -15 42
-16 14 -1 32 -4 40 -5 8 -2 33 -7 55 -12 22 -4 49 -12 60 -18 11 -6 24 -10 29
-9 4 2 14 -2 20 -8 7 -5 16 -7 19 -3 4 3 7 1 7 -6 0 -7 4 -10 10 -6 8 5 76
-12 130 -33 22 -8 22 -8 62 -16 21 -5 38 -12 38 -16 0 -5 8 -7 18 -5 9 1 22
-1 27 -5 9 -7 77 -22 90 -20 3 0 18 -6 34 -14 16 -9 31 -13 34 -10 3 3 20 -2
37 -11 18 -9 43 -15 56 -12 13 2 21 0 18 -4 -4 -8 64 -31 77 -26 3 1 13 -4 23
-12 9 -8 19 -11 22 -8 3 3 18 1 33 -5 14 -5 35 -12 45 -14 11 -2 23 -9 27 -15
4 -6 12 -8 18 -5 6 4 11 2 11 -4 0 -6 5 -8 10 -5 6 3 16 3 23 -2 13 -8 18 -10
43 -12 8 0 13 -5 10 -10 -3 -4 5 -8 17 -7 12 1 24 -2 27 -6 3 -4 22 -9 43 -12
20 -2 45 -12 54 -22 11 -10 19 -12 21 -6 2 7 9 8 20 2 26 -13 55 -23 77 -25
45 -4 85 -17 80 -26 -4 -5 0 -6 8 -3 8 3 18 0 22 -5 3 -6 10 -9 14 -6 5 2 37
-7 72 -20 34 -14 68 -24 73 -23 6 1 21 -3 33 -10 13 -7 23 -10 23 -6 0 3 6 2
13 -4 6 -5 26 -13 44 -16 17 -4 36 -13 42 -20 5 -6 26 -11 45 -11 19 1 33 -2
30 -7 -3 -4 5 -8 18 -7 28 1 55 -5 64 -13 3 -4 13 -4 21 -1 9 4 21 -1 29 -12
7 -10 20 -15 29 -12 8 4 15 1 15 -6 0 -8 4 -6 10 3 7 11 10 11 10 2 0 -8 5
-10 12 -6 7 5 9 2 5 -9 -3 -9 0 -18 9 -21 9 -3 12 -1 9 4 -9 15 7 12 29 -5 15
-11 23 -12 33 -3 11 9 13 8 11 -3 -2 -10 5 -13 25 -11 15 2 27 -1 27 -8 0 -6
5 -8 10 -5 6 3 10 2 10 -4 0 -5 11 -8 25 -7 13 2 22 0 20 -4 -5 -7 35 -23 61
-25 6 0 19 -6 28 -14 12 -10 16 -10 16 -1 0 9 4 9 13 2 7 -6 24 -12 37 -14 14
-2 35 -9 47 -16 12 -7 31 -12 42 -12 11 0 23 -5 26 -10 4 -6 11 -8 16 -5 5 4
12 -1 15 -9 3 -9 10 -14 14 -11 12 7 41 -6 35 -15 -3 -5 9 -6 26 -3 32 5 63
-12 52 -30 -3 -6 -1 -7 5 -3 20 12 53 16 46 5 -4 -7 3 -9 18 -7 14 1 33 -3 41
-11 9 -7 23 -11 31 -8 8 3 17 -1 20 -9 3 -8 12 -14 20 -14 8 0 25 -4 38 -9 13
-5 25 -8 28 -8 3 0 24 -10 48 -22 25 -13 42 -17 42 -10 0 8 5 8 15 -1 20 -16
74 -21 98 -8 13 6 17 5 17 -7 0 -8 3 -14 8 -13 12 3 56 -13 72 -27 8 -7 23
-11 33 -10 9 2 17 0 17 -5 0 -5 8 -7 18 -5 9 1 22 -2 29 -7 7 -5 18 -6 24 -2
8 5 10 2 7 -8 -4 -8 0 -15 8 -15 7 0 11 4 8 9 -4 5 3 5 15 -1 12 -6 30 -16 41
-21 12 -6 25 -8 30 -5 6 4 10 1 10 -4 0 -6 7 -11 16 -11 8 0 22 -6 30 -14 7
-8 23 -12 34 -9 11 3 27 0 35 -7 9 -7 32 -14 51 -16 20 -2 43 -11 51 -21 8
-10 12 -12 8 -5 -4 8 1 12 14 12 12 0 21 -5 21 -12 0 -6 3 -9 6 -6 3 4 17 0
31 -7 14 -7 32 -11 39 -8 8 3 16 -2 20 -10 3 -9 11 -14 19 -11 7 3 19 -2 28
-10 8 -8 17 -12 20 -9 4 3 14 2 24 -2 10 -4 34 -10 53 -12 19 -2 38 -9 41 -15
4 -6 26 -12 49 -13 23 -1 46 -8 51 -16 5 -8 9 -10 9 -5 0 5 6 4 13 -1 6 -6 19
-11 27 -12 56 -4 72 -9 80 -21 8 -12 10 -11 10 5 1 18 1 19 11 2 8 -14 14 -15
31 -6 18 10 20 9 16 -7 -4 -17 2 -19 68 -19 40 0 70 -3 67 -7 -2 -5 3 -8 11
-8 9 0 16 -5 16 -11 0 -8 6 -7 17 2 14 12 16 12 8 0 -6 -11 -2 -13 19 -9 14 3
28 2 31 -2 2 -3 21 -5 42 -3 21 2 45 3 53 3 8 0 44 1 80 2 36 1 80 1 98 0 18
0 32 4 32 11 0 7 4 6 10 -3 8 -11 12 -12 18 -3 11 17 54 23 70 10 9 -7 11 -6
7 4 -4 10 3 14 22 16 15 0 29 6 31 12 3 9 8 9 18 0 12 -10 13 -9 8 5 -6 15 4
21 34 17 6 -1 12 3 12 9 0 6 4 9 9 6 5 -3 12 1 15 10 3 8 10 12 16 9 5 -3 10
-1 10 5 0 6 4 9 9 6 8 -6 23 17 25 38 1 5 14 17 31 26 16 9 30 24 30 33 0 26
46 76 64 70 12 -3 11 0 -3 11 -18 15 -18 16 -2 16 9 0 14 5 11 10 -3 6 2 10
13 10 15 0 18 5 14 26 -3 19 -1 25 7 20 6 -4 11 -1 11 8 0 9 5 16 10 16 6 0
10 7 10 16 0 8 4 13 9 9 6 -3 8 4 6 15 -2 11 4 25 16 33 10 8 16 17 13 20 -4
4 0 9 9 13 9 3 13 12 10 21 -5 12 -3 14 8 8 12 -8 12 -6 0 8 -8 10 -11 20 -7
24 3 3 6 1 6 -5 0 -7 5 -12 11 -12 5 0 8 4 5 9 -3 5 1 14 9 21 18 15 20 44 3
35 -7 -4 -2 2 12 14 14 11 26 25 26 30 1 6 2 21 3 34 1 17 3 19 10 7 6 -8 7
-18 4 -24 -3 -5 -2 -6 4 -3 6 4 9 17 8 31 -2 13 6 34 16 45 11 12 17 26 13 33
-5 8 -2 9 9 5 10 -3 17 -2 17 3 0 6 -5 10 -10 10 -6 0 -3 11 7 24 10 13 21 22
26 19 4 -2 7 7 7 21 0 17 6 26 16 26 8 0 13 4 9 9 -3 5 0 13 6 16 5 4 8 14 5
22 -7 17 18 45 30 35 5 -4 2 1 -5 11 -10 13 -11 17 -1 17 7 0 10 8 8 18 -3 10
0 23 6 29 27 29 36 43 29 43 -4 0 0 7 9 14 10 7 19 23 21 36 2 13 11 28 20 35
9 7 17 20 17 29 0 10 5 14 11 10 7 -4 10 -1 7 7 -3 8 1 19 8 24 8 6 15 19 17
30 6 32 21 64 32 67 5 2 9 7 7 12 -1 4 5 14 14 21 10 7 15 19 11 28 -3 9 -3
16 1 14 4 -1 7 1 7 4 0 4 8 15 17 25 9 11 17 24 17 29 2 25 13 45 22 39 5 -3
9 -2 8 3 -4 22 2 43 11 38 6 -3 10 0 11 7 0 7 2 21 4 31 2 9 -2 17 -8 17 -7 1
-2 9 11 19 12 11 22 24 22 30 0 6 7 11 16 11 8 0 12 5 8 11 -3 6 0 15 7 20 8
4 14 16 14 26 0 10 10 29 23 43 12 13 22 26 23 29 4 32 10 46 19 49 6 2 23 29
39 60 15 32 45 89 66 127 58 107 79 149 81 161 1 7 20 43 41 80 22 38 53 96
69 129 16 33 37 68 47 78 11 11 20 24 21 31 2 12 26 55 56 101 11 17 23 39 27
49 3 10 18 42 33 70 14 28 32 70 40 94 7 23 19 42 27 42 8 0 11 5 7 11 -3 6
-3 14 2 18 5 3 25 40 44 81 19 41 43 86 52 99 10 13 18 29 18 35 0 6 20 45 44
86 24 41 49 100 55 130 15 71 75 193 146 300 31 46 73 114 93 150 19 36 39 67
42 70 11 7 125 189 188 300 87 151 116 200 164 280 26 41 76 127 113 190 37
63 73 122 80 130 34 43 67 162 48 173 -5 3 -44 -45 -88 -106z"/>
<path d="M7243 8816 c24 -28 76 -94 115 -147 120 -161 211 -233 362 -285 45
-16 83 -19 215 -18 230 1 247 12 177 120 -55 85 -142 175 -214 222 -83 54
-170 76 -409 107 -107 14 -217 31 -242 39 l-47 14 43 -52z m121 -82 c4 -11 1
-14 -11 -12 -9 2 -18 9 -21 16 -6 18 25 15 32 -4z m56 -24 c0 -5 -4 -10 -10
-10 -5 0 -10 5 -10 10 0 6 5 10 10 10 6 0 10 -4 10 -10z m104 -56 c9 -3 16
-11 16 -16 0 -7 -5 -6 -13 1 -8 6 -16 8 -19 5 -3 -3 -9 -1 -13 5 -7 12 5 14
29 5z m-74 -24 c0 -5 -4 -10 -10 -10 -5 0 -10 5 -10 10 0 6 5 10 10 10 6 0 10
-4 10 -10z m178 -56 c-35 -20 -41 -17 -21 10 14 18 21 21 31 13 11 -8 9 -13
-10 -23z m22 -20 c0 -8 -4 -12 -10 -9 -5 3 -10 10 -10 16 0 5 5 9 10 9 6 0 10
-7 10 -16z m50 -5 c0 -6 -4 -7 -10 -4 -5 3 -10 11 -10 16 0 6 5 7 10 4 6 -3
10 -11 10 -16z m180 11 c0 -5 -5 -10 -11 -10 -5 0 -7 5 -4 10 3 6 8 10 11 10
2 0 4 -4 4 -10z m-143 -25 c-15 -16 -22 -11 -13 10 3 9 10 13 16 10 6 -4 5
-11 -3 -20z m-49 3 c8 -8 8 -17 1 -30 -13 -24 -29 -14 -29 18 0 26 9 31 28 12z
m83 -29 c-13 -11 -26 -17 -29 -14 -8 8 20 35 37 35 12 -1 11 -5 -8 -21z m119
-58 c0 -10 -26 -9 -36 2 -4 4 2 7 14 7 12 0 22 -4 22 -9z m80 -57 c0 -2 -7 -4
-15 -4 -8 0 -15 4 -15 10 0 5 7 7 15 4 8 -4 15 -8 15 -10z"/>
<path d="M10098 8340 c-67 -11 -310 -95 -388 -135 -80 -40 -150 -104 -183
-165 -14 -25 -39 -54 -57 -65 -96 -58 -139 -133 -159 -279 -28 -197 9 -366
101 -471 33 -38 72 -61 175 -106 33 -14 87 -48 120 -74 76 -63 178 -110 282
-131 110 -21 356 -16 415 9 21 10 40 17 42 17 1 0 -2 -15 -7 -32 -5 -18 -9
-62 -9 -98 0 -140 94 -262 320 -412 74 -50 143 -97 153 -106 24 -22 29 -11 18
39 -6 24 -17 91 -25 149 -21 144 -39 197 -95 282 -54 80 -103 135 -168 188
-35 29 -42 39 -36 58 5 20 11 23 33 18 38 -7 119 -57 198 -120 120 -96 302
-135 477 -101 233 45 328 65 334 70 3 4 -1 10 -9 15 -9 5 -76 54 -149 110
-155 117 -197 140 -317 175 -118 34 -244 35 -369 1 -49 -13 -92 -22 -94 -20
-5 5 42 66 103 133 63 70 143 195 157 245 24 88 -25 223 -127 351 -31 39 -74
101 -96 138 -67 112 -173 187 -308 217 -30 7 -75 25 -100 39 -87 53 -161 72
-232 61z m542 -1738 c0 -15 -2 -15 -10 -2 -13 20 -13 33 0 25 6 -3 10 -14 10
-23z m220 -162 c0 -5 -2 -10 -4 -10 -3 0 -8 5 -11 10 -3 6 -1 10 4 10 6 0 11
-4 11 -10z"/>
<path d="M7818 8283 c6 -2 18 -2 25 0 6 3 1 5 -13 5 -14 0 -19 -2 -12 -5z"/>
<path d="M7968 8283 c6 -2 18 -2 25 0 6 3 1 5 -13 5 -14 0 -19 -2 -12 -5z"/>
<path d="M9105 8190 c-13 -6 -15 -9 -5 -9 8 0 22 4 30 9 18 12 2 12 -25 0z"/>
<path d="M9058 8173 c7 -3 16 -2 19 1 4 3 -2 6 -13 5 -11 0 -14 -3 -6 -6z"/>
<path d="M9008 8163 c6 -2 18 -2 25 0 6 3 1 5 -13 5 -14 0 -19 -2 -12 -5z"/>
<path d="M8953 8153 c9 -2 23 -2 30 0 6 3 -1 5 -18 5 -16 0 -22 -2 -12 -5z"/>
<path d="M11046 7445 c-9 -26 -7 -32 5 -12 6 10 9 21 6 23 -2 3 -7 -2 -11 -11z"/>
<path d="M9560 6966 c0 -3 9 -10 20 -16 11 -6 20 -8 20 -6 0 3 -9 10 -20 16
-11 6 -20 8 -20 6z"/>
<path d="M9660 6910 c8 -5 20 -10 25 -10 6 0 3 5 -5 10 -8 5 -19 10 -25 10 -5
0 -3 -5 5 -10z"/>
<path d="M9700 6897 c0 -9 181 -65 264 -83 39 -9 123 -17 186 -19 l115 -4
-110 10 c-155 13 -317 48 -442 96 -7 3 -13 3 -13 0z"/>
<path d="M11530 6749 c-107 -26 -271 -41 -390 -35 -69 3 -138 8 -155 11 -16 3
-7 -2 20 -10 83 -25 217 -29 345 -11 121 18 283 54 240 54 -14 0 -41 -4 -60
-9z"/>
<path d="M2166 4553 c-15 -154 -18 -310 -7 -366 6 -32 25 -88 42 -124 60 -126
247 -291 424 -374 89 -42 94 -49 79 -106 l-6 -22 -32 23 c-83 62 -254 136
-334 145 -105 11 -181 -3 -344 -68 -153 -61 -187 -77 -178 -83 3 -2 32 -22 65
-43 33 -22 62 -43 65 -46 9 -11 94 -74 131 -97 93 -56 259 -78 365 -47 62 18
148 60 203 100 19 14 36 23 38 21 2 -2 -1 -23 -7 -46 -20 -76 -41 -224 -39
-280 2 -54 44 -190 80 -262 21 -42 82 -87 169 -127 47 -21 67 -38 97 -81 26
-37 54 -62 88 -79 46 -24 57 -26 175 -23 69 2 171 -2 226 -9 74 -8 110 -9 133
-1 17 6 31 7 31 3 0 -4 -79 -34 -176 -65 -204 -68 -292 -119 -368 -212 -58
-71 -86 -124 -121 -234 -42 -132 -67 -202 -87 -242 -10 -21 -18 -48 -18 -60
-1 -13 -21 -74 -45 -137 -24 -63 -42 -118 -39 -123 10 -15 56 -8 162 27 59 19
153 48 209 65 111 35 227 99 310 175 28 25 55 45 59 45 5 1 20 18 33 38 58 90
139 229 147 252 12 32 90 179 109 204 8 11 18 17 21 13 15 -14 2 -82 -39 -207
-84 -254 -89 -302 -74 -730 9 -245 15 -307 29 -316 6 -4 23 7 37 23 14 17 71
71 127 120 135 117 192 182 248 279 64 112 83 194 68 295 -22 155 -97 283
-251 432 -56 53 -103 108 -107 122 -3 14 -1 69 7 121 18 136 28 139 128 40 46
-46 83 -92 90 -114 28 -78 107 -228 138 -263 39 -43 58 -51 176 -78 48 -12
119 -34 158 -51 167 -71 359 -90 481 -49 84 28 189 92 236 144 23 24 49 68 62
103 22 60 24 62 79 83 69 25 116 60 137 101 23 44 22 264 -1 332 -26 76 -20
81 53 46 35 -16 87 -45 115 -64 29 -19 84 -50 122 -68 68 -32 74 -33 200 -33
114 0 142 4 225 28 52 16 138 47 190 69 83 36 197 72 283 92 15 4 27 10 27 14
0 4 -38 33 -83 64 -45 32 -131 94 -192 137 -60 44 -148 99 -195 123 -81 41
-89 43 -175 43 -72 0 -107 -6 -174 -28 -142 -48 -210 -89 -322 -194 l-68 -65
6 50 c8 70 -11 117 -71 175 l-51 49 -5 103 c-8 157 -9 158 -249 215 -133 31
-134 31 -176 78 -49 55 -117 92 -167 92 -112 0 -288 -56 -361 -114 -63 -51
-127 -91 -127 -79 0 4 6 42 14 83 33 174 -8 282 -169 447 -130 133 -180 158
-310 158 -71 -1 -100 -5 -138 -23 -47 -21 -51 -21 -120 -6 -97 20 -267 19
-337 -2 -67 -20 -157 -64 -196 -97 -16 -13 -63 -40 -106 -60 -89 -41 -110 -66
-116 -144 -3 -39 -9 -56 -21 -60 -9 -3 -40 -16 -68 -29 l-53 -23 -1 72 c-2
215 -27 334 -96 469 -42 82 -53 94 -164 189 -109 91 -283 219 -299 219 -4 0
-10 -30 -14 -67z m147 -110 c-3 -7 -6 -13 -8 -13 -2 0 -5 6 -8 13 -3 8 1 14 8
14 7 0 11 -6 8 -14z m-19 -207 c7 3 13 -2 13 -10 0 -11 -5 -13 -19 -5 -10 5
-18 15 -17 22 0 9 2 9 5 0 3 -7 11 -10 18 -7z m-30 -38 c-3 -4 -11 -5 -19 -1
-21 7 -19 12 4 10 11 0 18 -5 15 -9z m108 -67 c-6 -14 -7 -14 -10 2 -2 9 -8
17 -13 17 -5 0 -9 5 -9 10 0 6 7 6 19 -2 12 -7 17 -18 13 -27z m232 20 c3 -5
-1 -11 -9 -14 -9 -4 -12 -1 -8 9 6 16 10 17 17 5z m-293 -28 c13 -16 12 -17
-3 -4 -10 7 -18 15 -18 17 0 8 8 3 21 -13z m104 -34 c-4 -5 -1 -9 6 -9 7 0 10
-3 6 -6 -12 -12 -37 5 -31 21 3 8 10 12 15 9 5 -3 7 -10 4 -15z m25 -39 c0 -5
-5 -10 -11 -10 -5 0 -7 5 -4 10 3 6 8 10 11 10 2 0 4 -4 4 -10z m113 -235 c4
-8 1 -17 -6 -21 -7 -4 -9 -4 -5 1 4 4 3 14 -3 22 -7 8 -8 13 -1 13 5 0 12 -7
15 -15z m41 -30 c-4 -8 -10 -12 -15 -9 -11 6 -2 24 11 24 5 0 7 -7 4 -15z
m-356 -314 c11 -7 10 -9 -3 -14 -9 -4 -14 -3 -10 2 3 5 -1 12 -7 14 -7 3 -8 6
-3 6 6 0 16 -3 23 -8z m4392 -635 c0 -3 -4 -8 -10 -11 -5 -3 -10 -1 -10 4 0 6
5 11 10 11 6 0 10 -2 10 -4z m-720 -12 c0 -8 -19 -13 -24 -6 -3 5 1 9 9 9 8 0
15 -2 15 -3z m204 -76 c-3 -4 -11 -5 -19 -1 -21 7 -19 12 4 10 11 0 18 -5 15
-9z m-2236 -108 c12 -34 11 -35 -43 -44 -22 -4 -62 -14 -88 -23 -39 -12 -51
-13 -60 -3 -9 10 -9 11 3 8 18 -6 93 31 135 66 38 32 41 32 53 -4z m-198 -86
c0 -2 -7 -4 -15 -4 -8 0 -15 4 -15 10 0 5 7 7 15 4 8 -4 15 -8 15 -10z m-243
-409 c0 -8 -4 -12 -9 -9 -5 3 -6 10 -3 15 9 13 12 11 12 -6z m338 -255 c3 -6
-1 -7 -9 -4 -18 7 -21 14 -7 14 6 0 13 -4 16 -10z"/>
<path d="M12940 4080 c-8 -5 -10 -10 -5 -10 6 0 17 5 25 10 8 5 11 10 5 10 -5
0 -17 -5 -25 -10z"/>
<path d="M12875 4060 c-3 -5 -1 -10 4 -10 6 0 11 5 11 10 0 6 -2 10 -4 10 -3
0 -8 -4 -11 -10z"/>
<path d="M12830 4040 c-8 -5 -10 -10 -5 -10 6 0 17 5 25 10 8 5 11 10 5 10 -5
0 -17 -5 -25 -10z"/>
<path d="M12776 4021 c-4 -5 3 -7 14 -4 23 6 26 13 6 13 -8 0 -17 -4 -20 -9z"/>
<path d="M12710 4002 c-8 -2 -33 -12 -55 -22 -22 -9 -61 -25 -88 -35 -26 -10
-46 -20 -44 -22 4 -3 196 66 206 74 9 6 -4 10 -19 5z"/>
<path d="M12415 3894 c-106 -37 -255 -97 -252 -101 2 -1 75 24 163 56 209 76
192 69 174 70 -8 0 -46 -11 -85 -25z"/>
<path d="M11960 3720 c0 -5 7 -7 15 -4 8 4 15 8 15 10 0 2 -7 4 -15 4 -8 0
-15 -4 -15 -10z"/>
<path d="M2050 3300 c8 -5 20 -10 25 -10 6 0 3 5 -5 10 -8 5 -19 10 -25 10 -5
0 -3 -5 5 -10z"/>
<path d="M2130 3271 c21 -12 270 -84 275 -79 4 4 -265 88 -281 88 -5 0 -2 -4
6 -9z"/>
<path d="M2428 3183 c7 -3 16 -2 19 1 4 3 -2 6 -13 5 -11 0 -14 -3 -6 -6z"/>
<path d="M9690 2889 c-74 -27 -141 -51 -149 -54 -8 -3 -12 -8 -9 -10 5 -6 279
94 293 106 13 13 15 13 -135 -42z"/>
<path d="M9455 2799 c-22 -10 -29 -16 -16 -13 37 10 88 33 71 33 -8 0 -33 -9
-55 -20z"/>
<path d="M6649 2610 c-308 -119 -469 -160 -622 -160 -39 0 -68 -3 -64 -6 11
-12 191 -3 267 12 41 9 118 31 170 49 109 37 473 175 479 181 16 15 -50 -7
-230 -76z"/>
<path d="M5712 2415 c-17 -36 -30 -65 -28 -65 3 0 20 29 39 65 19 36 32 65 28
65 -4 0 -21 -29 -39 -65z"/>
<path d="M5566 2171 c-20 -27 -74 -84 -119 -127 -45 -43 -66 -67 -47 -54 59
41 229 230 206 230 -2 0 -21 -22 -40 -49z"/>
<path d="M5276 1914 c-84 -46 -225 -91 -331 -104 -167 -21 -353 11 -557 95
-15 6 -18 2 -17 -21 1 -19 3 -23 6 -11 5 21 6 20 97 -13 140 -51 229 -68 362
-69 108 -2 145 2 227 23 92 24 218 77 261 111 36 28 11 23 -48 -11z"/>
<path d="M3341 1514 c-90 -46 -161 -84 -157 -84 19 0 276 127 311 154 31 24
21 19 -154 -70z"/>
<path d="M3080 1400 c-41 -16 -69 -29 -63 -29 13 -1 143 46 152 54 9 10 -16 3
-89 -25z"/>
<path d="M2760 1323 c-19 -3 -39 -9 -45 -15 -7 -7 2 -9 30 -4 22 3 52 6 68 6
15 0 27 5 27 10 0 10 -14 10 -80 3z"/>
<path d="M4179 1303 c-13 -16 -12 -17 4 -4 16 13 21 21 13 21 -2 0 -10 -8 -17
-17z"/>
<path d="M4086 1188 c-43 -51 -101 -118 -130 -148 -92 -98 -212 -235 -192
-220 51 39 420 460 404 460 -2 0 -38 -42 -82 -92z"/>
</g>
</svg>
