<?xml version="1.0" standalone="no"?>
<!DOCTYPE svg PUBLIC "-//W3C//DTD SVG 20010904//EN"
 "http://www.w3.org/TR/2001/REC-SVG-20010904/DTD/svg10.dtd">
<svg version="1.0" xmlns="http://www.w3.org/2000/svg"
 width="3108.000000pt" height="3296.000000pt" viewBox="0 0 3108.000000 3296.000000"
 preserveAspectRatio="xMidYMid meet">

<g transform="translate(0.000000,3296.000000) scale(0.100000,-0.100000)"
fill="#000000" stroke="none">
<path d="M5458 26643 c-10 -2 -18 -9 -18 -14 0 -12 3 -12 36 6 28 14 19 18
-18 8z"/>
<path d="M15119 26349 c-48 -5 -106 -13 -130 -19 -24 -6 -75 -18 -114 -25 -38
-8 -90 -20 -115 -28 -49 -15 -212 -87 -220 -97 -3 -4 -43 -31 -90 -60 -101
-64 -228 -167 -236 -192 -3 -10 -9 -18 -14 -18 -5 0 -11 -8 -14 -18 -4 -10
-15 -28 -26 -40 -11 -12 -36 -49 -56 -82 -20 -34 -56 -86 -81 -117 -24 -30
-42 -60 -40 -68 3 -7 0 -21 -7 -31 -7 -11 -16 -46 -20 -79 -9 -86 -27 -188
-35 -205 -7 -14 -7 -368 -1 -380 4 -7 7 -22 9 -38 0 -7 5 -11 10 -8 4 3 11
-15 15 -40 3 -25 12 -52 20 -60 10 -9 13 -26 9 -49 -5 -31 -3 -35 16 -35 17 0
21 -6 21 -30 0 -16 5 -30 10 -30 6 0 10 6 10 13 0 8 4 7 10 -3 5 -8 7 -23 4
-32 -3 -10 3 -21 16 -28 13 -7 20 -21 20 -39 0 -22 15 -44 63 -92 34 -34 72
-76 85 -93 13 -17 26 -31 30 -31 6 0 53 -28 72 -43 2 -1 -2 -7 -10 -12 -13 -8
-12 -10 2 -10 9 0 18 -6 21 -12 4 -10 7 -10 18 0 19 18 29 15 29 -8 0 -29 48
-72 72 -64 10 3 18 1 18 -5 0 -17 22 -12 48 8 29 25 28 33 -2 20 -19 -9 -29
-8 -48 5 -23 17 -23 17 15 14 23 -1 41 3 46 11 7 10 13 9 30 -8 17 -17 26 -20
36 -11 10 9 20 2 46 -30 34 -42 49 -50 49 -26 0 18 17 29 30 21 8 -5 8 -11 1
-19 -6 -7 -8 -16 -4 -19 12 -12 23 -7 23 10 0 13 3 14 12 5 18 -18 45 -14 62
10 13 18 18 19 31 8 20 -17 20 4 -1 25 -26 26 -5 38 47 26 63 -15 76 -13 82 8
4 15 1 18 -12 13 -13 -5 -14 -3 -4 10 7 8 9 19 5 24 -4 5 3 1 15 -9 20 -18 23
-18 47 -2 25 16 85 24 116 15 8 -3 14 0 12 8 -1 6 2 12 8 12 5 0 10 -5 10 -10
0 -20 31 -23 46 -4 9 11 13 13 9 6 -3 -6 1 -15 9 -18 9 -3 16 -12 16 -20 0 -8
4 -14 8 -14 9 0 32 -44 32 -61 0 -6 -4 -8 -9 -5 -4 3 -25 -3 -46 -13 l-38 -18
27 -7 c14 -3 26 -10 26 -14 0 -9 65 -6 80 3 5 3 13 -3 19 -12 9 -17 13 -16 55
6 39 22 48 23 72 12 25 -11 30 -10 45 11 10 12 21 19 26 15 4 -5 3 -11 -2 -15
-10 -7 -35 -56 -35 -68 0 -3 16 10 35 30 40 41 55 44 73 16 14 -24 38 -26 46
-5 3 8 16 15 28 15 28 0 42 9 51 33 3 9 13 17 21 17 30 0 101 48 106 71 4 17
8 20 14 11 5 -9 19 -1 49 30 23 24 54 49 69 57 15 8 27 17 26 20 -4 21 40 81
59 81 9 0 33 48 33 66 0 7 3 14 8 16 19 8 73 90 68 103 -3 9 5 21 20 31 14 10
23 23 20 31 -4 11 -1 13 14 8 19 -6 20 -3 14 48 -6 47 -4 57 15 74 20 19 21
22 6 37 -15 15 -15 16 5 16 17 0 20 4 15 21 -5 14 -1 25 11 34 18 13 18 14 1
32 -21 24 -23 40 -2 23 13 -11 15 -7 17 26 2 59 -2 88 -14 95 -11 7 -8 24 8
63 5 14 4 17 -4 12 -16 -9 -15 7 0 22 10 10 10 17 0 33 -7 11 -13 41 -12 67 0
56 -9 112 -20 112 -4 0 -10 23 -13 50 -3 28 -15 62 -27 77 -11 14 -20 36 -20
49 0 13 -4 24 -10 24 -5 0 -10 6 -10 13 0 7 -9 30 -20 52 -11 22 -20 46 -20
55 0 8 -12 26 -25 39 -14 13 -25 29 -25 37 0 8 -4 14 -8 14 -4 0 -16 14 -27
32 -10 18 -29 44 -41 58 -12 14 -32 36 -43 50 -116 139 -164 184 -277 263
-110 76 -223 118 -384 142 -103 16 -114 16 -241 4z m931 -879 c0 -5 -4 -10
-10 -10 -5 0 -10 5 -10 10 0 6 5 10 10 10 6 0 10 -4 10 -10z m-43 -20 c-4 -15
-1 -20 11 -18 12 2 16 -3 14 -19 -4 -26 22 -32 32 -8 9 24 21 17 31 -17 8 -26
16 -34 38 -36 l29 -3 -5 -72 c-6 -93 -11 -112 -31 -111 -16 2 -16 -9 0 -87 3
-17 -1 -31 -14 -43 -19 -16 -20 -16 -31 14 -9 26 -13 30 -29 21 -11 -6 -22 -7
-26 -4 -3 4 -12 -1 -19 -10 -18 -25 -55 -11 -59 22 -2 18 -8 25 -21 23 -15 -3
-17 3 -11 55 6 54 5 57 -10 38 -8 -11 -16 -15 -16 -8 0 6 8 18 18 25 18 14 26
48 11 48 -5 0 -9 -7 -9 -16 0 -8 -4 -12 -10 -9 -5 3 -10 19 -10 35 0 20 -6 31
-20 35 -11 3 -20 11 -20 16 0 20 21 49 35 49 8 0 15 7 15 15 0 8 -7 15 -16 15
-9 0 -14 7 -12 17 5 26 22 25 53 -3 22 -20 30 -23 36 -12 5 7 9 9 9 5 0 -5 5
-5 10 -2 8 5 8 11 0 20 -13 16 -2 45 17 45 10 0 14 -7 10 -20z m93 0 c0 -5 -4
-10 -10 -10 -5 0 -10 5 -10 10 0 6 5 10 10 10 6 0 10 -4 10 -10z m-332 -70 c7
-11 9 -20 4 -20 -10 0 -32 22 -32 32 0 15 15 8 28 -12z m-31 -52 c-3 -8 -6 -5
-6 6 -1 11 2 17 5 13 3 -3 4 -12 1 -19z m-1427 -40 c0 -6 -7 -5 -15 2 -8 7
-15 17 -15 22 0 6 7 5 15 -2 8 -7 15 -17 15 -22z m1478 10 c-6 -18 -28 -21
-28 -4 0 9 7 16 16 16 9 0 14 -5 12 -12z m82 -17 c0 -5 -7 -14 -15 -21 -13
-10 -15 -9 -15 9 0 12 6 21 15 21 8 0 15 -4 15 -9z m-1546 -108 c-5 -35 -4
-39 24 -49 21 -8 34 -8 41 -1 7 7 20 0 40 -21 32 -32 41 -62 18 -62 -30 0 -37
-22 -16 -52 22 -30 49 -38 49 -13 0 8 -4 15 -10 15 -16 0 -12 42 7 62 9 11 11
18 5 18 -7 0 -12 7 -12 15 0 8 -4 15 -10 15 -5 0 -10 5 -10 11 0 8 5 8 15 -1
8 -7 15 -9 15 -4 0 5 8 -4 19 -21 15 -26 16 -33 5 -50 -19 -27 -17 -35 6 -35
11 0 23 -7 26 -15 4 -8 15 -15 25 -15 10 0 19 -4 19 -10 0 -6 -9 -6 -26 0 -34
13 -41 13 -48 -5 -11 -29 4 -46 35 -40 33 7 36 0 12 -27 -9 -10 -13 -21 -9
-25 4 -5 12 0 17 10 14 25 32 10 24 -21 -6 -23 -5 -24 10 -12 15 12 19 12 31
-5 8 -11 21 -28 29 -38 8 -9 15 -25 15 -34 0 -9 3 -13 7 -10 3 4 19 -7 35 -24
22 -23 28 -37 24 -55 -5 -17 -2 -24 9 -24 8 0 15 5 15 10 0 6 5 10 11 10 13 0
2 -39 -19 -62 -14 -17 -13 -18 9 -18 14 0 30 5 36 11 8 8 14 5 23 -11 8 -14
17 -19 28 -15 14 5 14 4 5 -6 -10 -10 -18 -10 -38 1 -27 14 -46 7 -28 -11 6
-6 9 -19 5 -28 -5 -14 -4 -14 12 -2 14 12 21 13 38 2 23 -14 40 -5 18 10 -12
9 -12 10 3 5 10 -3 24 -6 32 -6 7 0 27 -14 44 -32 30 -30 31 -31 50 -14 19 18
47 14 36 -5 -11 -16 16 -10 46 12 39 27 62 20 49 -16 -13 -33 0 -32 29 4 16
19 30 27 42 24 23 -6 25 -23 4 -23 -8 0 -15 -4 -15 -10 0 -5 -8 -10 -17 -11
-10 0 -13 -3 -6 -5 13 -6 82 29 95 48 8 10 11 10 15 1 6 -15 39 -17 48 -3 3 5
-3 17 -14 27 -21 17 -19 33 3 33 8 0 16 -8 18 -18 3 -10 22 -24 44 -31 21 -7
45 -15 52 -17 6 -3 12 -1 12 5 0 6 -10 11 -22 11 -15 0 -19 3 -12 10 16 16 56
14 89 -3 32 -18 44 -15 26 7 -13 16 1 32 19 21 15 -10 12 18 -6 43 -9 13 -11
22 -4 22 6 0 14 -8 17 -17 6 -16 39 -53 47 -53 2 0 6 9 9 21 3 12 10 18 16 14
16 -9 48 3 55 22 7 18 -28 58 -43 49 -5 -3 -12 5 -15 19 -3 13 -15 32 -25 42
-17 16 -18 20 -5 37 12 17 14 18 14 3 0 -24 13 -21 25 6 7 16 18 21 38 20 15
-1 27 2 27 6 0 5 18 8 40 7 28 0 40 -5 41 -16 0 -10 3 -9 9 5 13 30 12 35 -10
35 -11 0 -20 -4 -20 -10 0 -5 -7 -10 -15 -10 -8 0 -15 5 -15 10 0 6 7 10 15
10 8 0 15 4 15 9 0 5 10 11 23 13 17 2 21 9 19 28 -2 24 -2 24 15 8 15 -16 16
-19 0 -36 -15 -17 -15 -19 2 -34 16 -14 20 -14 25 -2 3 8 11 14 18 14 16 0 61
94 48 98 -13 5 -13 32 0 32 6 0 13 -7 16 -15 8 -20 24 -9 24 16 0 10 5 19 10
19 16 0 11 17 -6 24 -11 4 -22 -1 -31 -14 -16 -23 -33 -26 -33 -6 0 8 17 25
38 37 50 32 52 32 52 19 0 -6 9 -20 20 -32 21 -23 18 -41 -5 -31 -19 7 -19 -4
-1 -23 22 -21 30 -17 42 21 8 27 8 35 -2 39 -18 7 -7 34 18 42 13 4 24 0 33
-13 16 -21 20 -57 5 -48 -5 3 -10 15 -10 26 0 21 -15 26 -26 7 -4 -6 0 -17 10
-23 10 -8 14 -19 10 -30 -4 -10 -1 -21 7 -27 11 -7 11 -11 2 -15 -7 -2 -13
-14 -13 -26 0 -16 -3 -18 -12 -9 -17 17 -33 15 -19 -2 14 -17 4 -66 -12 -63
-6 1 -13 -8 -15 -20 -2 -13 -10 -23 -18 -23 -8 0 -14 -7 -14 -15 0 -8 -6 -15
-14 -15 -24 0 -30 -39 -10 -61 10 -11 12 -19 6 -19 -7 0 -12 5 -12 10 0 19
-32 10 -37 -11 -3 -12 -11 -18 -19 -15 -11 4 -13 -1 -8 -19 5 -21 3 -24 -10
-19 -9 3 -23 1 -31 -6 -10 -9 -15 -9 -15 -1 0 6 -5 11 -10 11 -6 0 -5 -8 2
-20 16 -25 3 -38 -22 -22 -22 13 -27 3 -8 -16 17 -17 48 -15 48 3 0 8 6 15 13
15 18 0 19 -36 1 -51 -15 -13 -20 -12 -86 16 -13 5 -18 2 -18 -9 0 -8 -11 -18
-25 -22 -14 -3 -25 -10 -25 -15 0 -5 -11 -9 -25 -9 -14 0 -25 -5 -25 -11 0 -6
-7 -8 -16 -5 -9 4 -24 1 -33 -7 -24 -20 -124 -49 -170 -51 -23 0 -41 -4 -41
-8 0 -5 -13 -8 -29 -8 -17 0 -32 -4 -35 -8 -3 -5 -38 -7 -78 -5 -40 2 -102 5
-138 6 -47 2 -79 10 -117 30 -29 15 -65 27 -80 26 -25 0 -26 -1 -8 -10 17 -8
16 -8 -5 -3 -14 3 -37 8 -52 11 -16 3 -41 20 -58 39 -16 19 -34 34 -39 34 -6
0 -14 7 -19 16 -5 9 -21 17 -36 17 -15 0 -30 5 -33 12 -2 7 -15 16 -29 19 -13
4 -24 14 -24 22 0 11 -6 15 -20 11 -16 -4 -20 0 -20 18 0 18 -4 22 -20 18 -14
-4 -20 0 -20 11 0 17 -15 22 -24 7 -8 -12 4 -41 16 -41 6 0 21 -11 34 -25 13
-14 28 -25 34 -25 5 0 10 -4 10 -10 0 -5 7 -10 15 -10 19 0 19 -14 0 -30 -21
-17 -14 -33 16 -41 21 -6 22 -7 6 -14 -14 -6 -26 0 -45 19 -15 14 -21 26 -14
26 25 0 11 26 -20 38 -39 14 -47 8 -23 -18 23 -25 15 -25 -31 -1 -19 11 -30
22 -25 26 6 3 11 11 11 17 0 7 -4 7 -13 -1 -11 -8 -20 -6 -40 12 -15 12 -27
28 -27 35 0 7 -4 11 -9 8 -5 -4 -7 3 -4 15 4 12 -3 32 -16 49 -27 37 -27 40 8
40 34 0 49 16 49 53 0 20 -5 27 -20 27 -13 0 -18 5 -15 14 3 8 -2 16 -13 19
-10 3 -21 18 -25 36 -4 17 -10 31 -14 31 -4 0 -8 21 -7 46 0 25 -5 48 -11 52
-6 4 -14 22 -18 40 -6 31 -5 33 17 30 27 -4 33 25 6 30 -10 2 -18 -2 -18 -8 0
-6 -4 -8 -10 -5 -5 3 -10 11 -10 16 0 6 4 8 9 5 5 -3 14 15 21 39 15 55 22 58
14 8z m41 -23 c3 -5 1 -10 -4 -10 -6 0 -11 5 -11 10 0 6 2 10 4 10 3 0 8 -4
11 -10z m1319 -19 c3 -4 -4 -17 -15 -27 -21 -19 -21 -18 -8 9 13 30 15 31 23
18z m-41 -71 c4 -17 2 -18 -14 -9 -11 5 -17 14 -14 20 10 15 22 10 28 -11z
m100 -20 c-3 -12 -8 -19 -11 -16 -5 6 5 36 12 36 2 0 2 -9 -1 -20z m107 -44
c0 -3 -4 -8 -10 -11 -5 -3 -10 -1 -10 4 0 6 5 11 10 11 6 0 10 -2 10 -4z m240
-36 c0 -5 -2 -10 -4 -10 -3 0 -8 5 -11 10 -3 6 -1 10 4 10 6 0 11 -4 11 -10z
m-226 -49 c-7 -8 -35 9 -29 19 4 6 11 5 20 -3 7 -6 11 -14 9 -16z m456 8 c0
-6 -4 -7 -10 -4 -5 3 -10 11 -10 16 0 6 5 7 10 4 6 -3 10 -11 10 -16z m-1700
-25 c0 -8 -4 -12 -10 -9 -5 3 -10 10 -10 16 0 5 5 9 10 9 6 0 10 -7 10 -16z
m1117 -29 c-11 -8 -26 -11 -35 -7 -15 5 -14 7 3 10 11 2 24 8 29 13 5 5 12 6
15 3 3 -3 -2 -12 -12 -19z m-897 -205 c0 -5 -2 -10 -4 -10 -3 0 -8 5 -11 10
-3 6 -1 10 4 10 6 0 11 -4 11 -10z m797 -46 c-3 -3 -12 -4 -19 -1 -8 3 -5 6 6
6 11 1 17 -2 13 -5z m-57 -14 c0 -5 -4 -10 -10 -10 -5 0 -10 5 -10 10 0 6 5
10 10 10 6 0 10 -4 10 -10z m-1200 -10 c0 -5 -2 -10 -4 -10 -3 0 -8 5 -11 10
-3 6 -1 10 4 10 6 0 11 -4 11 -10z m1010 -40 c0 -5 -7 -10 -16 -10 -8 0 -12 5
-9 10 3 6 10 10 16 10 5 0 9 -4 9 -10z m-970 -16 c0 -2 -7 -4 -15 -4 -8 0 -15
4 -15 10 0 5 7 7 15 4 8 -4 15 -8 15 -10z m640 -26 c0 -12 -28 3 -34 18 -4 11
-2 12 14 1 11 -6 20 -15 20 -19z m-590 -9 c0 -5 -7 -9 -15 -9 -8 0 -15 7 -15
15 0 9 6 12 15 9 8 -4 15 -10 15 -15z m210 6 c0 -8 -6 -15 -14 -15 -8 0 -16 7
-20 15 -4 10 1 15 14 15 11 0 20 -7 20 -15z m1108 -34 c-12 -19 -38 -29 -38
-15 0 9 42 45 47 40 3 -2 -2 -13 -9 -25z m-1078 9 c0 -5 -2 -10 -4 -10 -3 0
-8 5 -11 10 -3 6 -1 10 4 10 6 0 11 -4 11 -10z m-280 -12 c0 -6 10 -22 22 -35
12 -13 18 -26 14 -30 -3 -4 -14 4 -24 17 -24 33 -33 60 -22 60 6 0 10 -5 10
-12z m140 -18 c0 -5 -4 -10 -10 -10 -5 0 -10 5 -10 10 0 6 5 10 10 10 6 0 10
-4 10 -10z m-46 -14 c-3 -9 6 -19 25 -27 17 -8 31 -17 31 -21 0 -15 19 -8 47
17 24 21 26 26 13 35 -13 8 -13 10 3 10 9 0 17 -4 17 -9 0 -5 9 -11 20 -14 11
-3 20 -13 20 -22 0 -14 -3 -15 -15 -5 -12 10 -18 10 -30 0 -12 -10 -12 -15 2
-36 21 -33 10 -41 -18 -15 -25 23 -39 27 -39 9 0 -6 -7 -4 -18 5 -10 10 -22
17 -27 17 -14 0 -56 51 -50 61 9 14 25 11 19 -5z m1201 -4 c-3 -3 -11 0 -18 7
-9 10 -8 11 6 5 10 -3 15 -9 12 -12z m-1115 4 c0 -3 -4 -8 -10 -11 -5 -3 -10
-1 -10 4 0 6 5 11 10 11 6 0 10 -2 10 -4z m-70 -88 c0 -13 -13 -9 -39 11 -14
10 -21 23 -17 30 5 8 15 5 32 -11 13 -13 24 -26 24 -30z m219 18 c-3 -3 -15
-3 -27 1 -18 4 -20 8 -11 20 11 12 14 12 28 -1 8 -9 13 -18 10 -20z m-405 -51
c-9 -14 -20 -22 -25 -19 -18 11 -8 22 39 43 1 0 -5 -10 -14 -24z m276 15 c0
-5 8 -10 18 -11 11 -1 8 -4 -8 -8 -25 -8 -50 3 -50 20 0 5 9 9 20 9 11 0 20
-4 20 -10z m83 -7 c8 -10 18 -31 22 -48 6 -28 6 -29 -9 -11 -14 17 -19 18 -41
6 -14 -7 -28 -11 -31 -7 -9 9 5 27 23 27 11 0 14 6 9 25 -7 29 4 32 27 8z
m-309 -18 c-4 -8 -10 -15 -14 -15 -5 0 -10 -8 -13 -17 -4 -17 -4 -17 -12 0 -5
12 -2 22 11 32 25 19 35 19 28 0z m361 -5 c3 -5 1 -10 -4 -10 -6 0 -11 5 -11
10 0 6 2 10 4 10 3 0 8 -4 11 -10z m-325 -29 c0 -5 9 -11 20 -14 11 -3 20 -12
20 -20 0 -10 -8 -15 -20 -14 -12 1 -20 8 -20 19 0 10 -7 18 -15 18 -8 0 -15
-4 -15 -10 0 -5 -7 -10 -16 -10 -12 0 -11 5 7 20 26 21 39 25 39 11z m98 -26
c0 -15 -6 -25 -14 -25 -17 0 -18 16 -1 35 6 8 13 14 13 15 1 0 2 -11 2 -25z
m62 15 c0 -5 -5 -10 -11 -10 -5 0 -7 5 -4 10 3 6 8 10 11 10 2 0 4 -4 4 -10z
m470 6 c0 -2 -11 -6 -25 -8 -14 -3 -25 -1 -25 3 0 5 11 9 25 9 14 0 25 -2 25
-4z m270 -6 c0 -5 -2 -10 -4 -10 -3 0 -8 5 -11 10 -3 6 -1 10 4 10 6 0 11 -4
11 -10z m510 -4 c0 -2 -7 -7 -16 -10 -8 -3 -12 -2 -9 4 6 10 25 14 25 6z
m-526 -29 c15 -24 -3 -35 -20 -13 -8 11 -14 24 -14 29 0 13 22 3 34 -16z m466
9 c0 -3 -4 -8 -10 -11 -5 -3 -10 -1 -10 4 0 6 5 11 10 11 6 0 10 -2 10 -4z
m51 -38 c-24 -19 -67 -25 -56 -8 3 6 14 10 25 10 10 0 21 7 24 16 3 8 11 12
18 8 8 -5 4 -13 -11 -26z m-1388 -10 c6 -21 2 -36 -7 -27 -10 11 -16 49 -8 49
5 0 12 -10 15 -22z m232 -8 c3 -5 1 -10 -4 -10 -6 0 -11 5 -11 10 0 6 2 10 4
10 3 0 8 -4 11 -10z m1015 -18 c0 -13 -12 -22 -22 -16 -10 6 -1 24 13 24 5 0
9 -4 9 -8z m-60 -22 c0 -5 -2 -10 -4 -10 -3 0 -8 5 -11 10 -3 6 -1 10 4 10 6
0 11 -4 11 -10z m-140 -4 c0 -3 -4 -8 -10 -11 -5 -3 -10 -1 -10 4 0 6 5 11 10
11 6 0 10 -2 10 -4z m184 -31 c-7 -17 -20 -20 -28 -6 -7 10 3 21 20 21 8 0 11
-6 8 -15z m-264 -5 c0 -5 -4 -10 -10 -10 -5 0 -10 5 -10 10 0 6 5 10 10 10 6
0 10 -4 10 -10z"/>
<path d="M16077 25372 c-12 -19 1 -49 24 -55 19 -5 19 -4 6 11 -8 9 -17 26
-19 37 -2 14 -6 16 -11 7z"/>
<path d="M16081 25144 c0 -11 3 -14 6 -6 3 7 2 16 -1 19 -3 4 -6 -2 -5 -13z"/>
<path d="M14380 25090 c0 -5 5 -10 10 -10 6 0 10 5 10 10 0 6 -4 10 -10 10 -5
0 -10 -4 -10 -10z"/>
<path d="M15962 24909 c2 -7 10 -15 17 -17 8 -3 12 1 9 9 -2 7 -10 15 -17 17
-8 3 -12 -1 -9 -9z"/>
<path d="M15874 24826 c-8 -22 3 -33 18 -18 9 9 9 15 0 24 -9 9 -13 7 -18 -6z"/>
<path d="M15910 24790 c0 -5 5 -10 10 -10 6 0 10 5 10 10 0 6 -4 10 -10 10 -5
0 -10 -4 -10 -10z"/>
<path d="M15637 24763 c-12 -11 -8 -23 8 -23 8 0 15 -4 15 -10 0 -5 9 -10 20
-10 11 0 20 5 20 10 0 6 -9 10 -20 10 -11 0 -20 7 -20 15 0 16 -12 20 -23 8z"/>
<path d="M15800 24750 c0 -5 5 -10 10 -10 6 0 10 5 10 10 0 6 -4 10 -10 10 -5
0 -10 -4 -10 -10z"/>
<path d="M15740 24730 c0 -5 5 -10 10 -10 6 0 10 5 10 10 0 6 -4 10 -10 10 -5
0 -10 -4 -10 -10z"/>
<path d="M15646 24701 c-4 -7 -5 -15 -2 -18 9 -9 19 4 14 18 -4 11 -6 11 -12
0z"/>
<path d="M15681 24653 c-1 -16 5 -23 17 -23 10 0 13 3 6 8 -6 4 -14 14 -17 22
-4 10 -6 8 -6 -7z"/>
<path d="M14575 24650 c-3 -5 -1 -10 4 -10 6 0 11 5 11 10 0 6 -2 10 -4 10 -3
0 -8 -4 -11 -10z"/>
<path d="M15340 24489 c0 -5 5 -7 10 -4 6 3 10 8 10 11 0 2 -4 4 -10 4 -5 0
-10 -5 -10 -11z"/>
<path d="M15038 24413 c7 -3 16 -2 19 1 4 3 -2 6 -13 5 -11 0 -14 -3 -6 -6z"/>
<path d="M13871 25094 c0 -11 3 -14 6 -6 3 7 2 16 -1 19 -3 4 -6 -2 -5 -13z"/>
<path d="M13688 25018 c12 -12 25 -19 28 -15 4 4 -1 14 -12 22 -29 22 -41 18
-16 -7z"/>
<path d="M13871 24964 c0 -11 3 -14 6 -6 3 7 2 16 -1 19 -3 4 -6 -2 -5 -13z"/>
<path d="M15198 24203 c12 -2 30 -2 40 0 9 3 -1 5 -23 4 -22 0 -30 -2 -17 -4z"/>
<path d="M14580 24144 c0 -3 6 -12 14 -20 15 -15 46 -9 46 8 0 6 -7 8 -15 5
-8 -4 -17 -2 -20 3 -7 11 -25 14 -25 4z"/>
<path d="M14900 24131 c0 -5 14 -11 30 -13 35 -5 41 7 8 16 -31 8 -38 7 -38
-3z"/>
<path d="M14540 24115 c0 -8 7 -15 15 -15 8 0 15 7 15 15 0 8 -7 15 -15 15 -8
0 -15 -7 -15 -15z"/>
<path d="M15050 24110 c8 -5 24 -9 35 -9 l20 0 -20 9 c-11 5 -27 9 -35 9 -13
1 -13 0 0 -9z"/>
<path d="M14647 24089 c-10 -36 -9 -37 19 -31 14 2 22 7 17 11 -6 3 -14 14
-20 25 -9 17 -10 17 -16 -5z"/>
<path d="M15441 24081 c-16 -10 -6 -31 14 -31 11 0 25 20 25 36 0 7 -24 4 -39
-5z"/>
<path d="M14595 24070 c3 -5 13 -10 21 -10 8 0 14 5 14 10 0 6 -9 10 -21 10
-11 0 -17 -4 -14 -10z"/>
<path d="M15490 24070 c0 -5 5 -10 11 -10 5 0 7 5 4 10 -3 6 -8 10 -11 10 -2
0 -4 -4 -4 -10z"/>
<path d="M15571 24055 c-24 -26 -13 -36 13 -10 8 9 22 12 32 8 12 -4 15 -2 12
8 -8 23 -31 21 -57 -6z"/>
<path d="M15245 24060 c3 -5 8 -10 11 -10 2 0 4 5 4 10 0 6 -5 10 -11 10 -5 0
-7 -4 -4 -10z"/>
<path d="M14720 24035 c7 -8 17 -12 22 -9 6 4 5 10 -3 15 -22 14 -33 10 -19
-6z"/>
<path d="M14790 24024 c0 -8 5 -12 10 -9 6 3 10 10 10 16 0 5 -4 9 -10 9 -5 0
-10 -7 -10 -16z"/>
<path d="M15380 23998 c0 -19 2 -20 10 -8 13 19 13 30 0 30 -5 0 -10 -10 -10
-22z"/>
<path d="M14870 23999 c0 -5 5 -7 10 -4 6 3 10 8 10 11 0 2 -4 4 -10 4 -5 0
-10 -5 -10 -11z"/>
<path d="M15458 24003 c7 -3 16 -2 19 1 4 3 -2 6 -13 5 -11 0 -14 -3 -6 -6z"/>
</g>
</svg>
